<svg xmlns="http://www.w3.org/2000/svg" xmlns:xlink="http://www.w3.org/1999/xlink" width="836" height="576" viewBox="0 0 836 576">
  <defs>
    <linearGradient id="linear-gradient" y1="0.625" x2="1" y2="0.64" gradientUnits="objectBoundingBox">
      <stop offset="0" stop-color="#f53d7d"/>
      <stop offset="1" stop-color="#642bff"/>
    </linearGradient>
    <filter id="Tracciato_1" x="0" y="197.2" width="836" height="205.8" filterUnits="userSpaceOnUse">
      <feOffset dy="3" input="SourceAlpha"/>
      <feGaussianBlur stdDeviation="10" result="blur"/>
      <feFlood flood-opacity="0.345"/>
      <feComposite operator="in" in2="blur"/>
      <feComposite in="SourceGraphic"/>
    </filter>
  </defs>
  <g id="Raggruppa_1" data-name="Raggruppa 1" transform="translate(-261 -193)">
    <g transform="matrix(1, 0, 0, 1, 261, 193)" filter="url(#Tracciato_1)">
      <path id="Tracciato_1-2" data-name="Tracciato 1" d="M27.6,200a12.31,12.31,0,0,1-9.1-3.5,11.811,11.811,0,0,1-3.5-8.7V72.2A11.958,11.958,0,0,1,27.2,60h65a12.192,12.192,0,0,1,8.7,3.3,11.16,11.16,0,0,1,3.5,8.5,10.586,10.586,0,0,1-3.5,7.8A11.994,11.994,0,0,1,92.2,83h-54L40,80.6v40.2l-1.4-2.6H83.2a12.192,12.192,0,0,1,8.7,3.3,11.16,11.16,0,0,1,3.5,8.5,10.586,10.586,0,0,1-3.5,7.8,11.994,11.994,0,0,1-8.7,3.4h-45l1.8-1.8v48.4a11.488,11.488,0,0,1-3.7,8.7A12.247,12.247,0,0,1,27.6,200ZM209,91a11.656,11.656,0,0,1,8.6,3.4,11.907,11.907,0,0,1,3.4,8.8v84.6a11.994,11.994,0,0,1-3.4,8.7,12.316,12.316,0,0,1-17.2,0,11.994,11.994,0,0,1-3.4-8.7V178l4.4,1.8q0,2.6-2.8,6.3a38.116,38.116,0,0,1-7.6,7.3,46.593,46.593,0,0,1-11.3,6.1,38.95,38.95,0,0,1-14.1,2.5,45.725,45.725,0,0,1-25-7.1,49.941,49.941,0,0,1-17.7-19.6q-6.5-12.5-6.5-28.7,0-16.4,6.5-28.9a50.5,50.5,0,0,1,17.5-19.6A44.056,44.056,0,0,1,164.8,91a46.212,46.212,0,0,1,15.8,2.6,47.215,47.215,0,0,1,12.5,6.6,37.821,37.821,0,0,1,8.2,8.1q2.9,4.1,2.9,6.9l-7.2,2.6V103.2a11.994,11.994,0,0,1,3.4-8.7A11.482,11.482,0,0,1,209,91Zm-40.4,89a27.111,27.111,0,0,0,15.4-4.4,29.711,29.711,0,0,0,10.3-12,38.325,38.325,0,0,0,3.7-17,38.792,38.792,0,0,0-3.7-17.2,29.711,29.711,0,0,0-10.3-12,27.111,27.111,0,0,0-15.4-4.4,26.764,26.764,0,0,0-15.2,4.4,29.711,29.711,0,0,0-10.3,12,38.791,38.791,0,0,0-3.7,17.2,38.325,38.325,0,0,0,3.7,17,29.711,29.711,0,0,0,10.3,12A26.764,26.764,0,0,0,168.6,180Zm101,7.8a11.994,11.994,0,0,1-3.4,8.7,12.316,12.316,0,0,1-17.2,0,11.994,11.994,0,0,1-3.4-8.7V105.2a11.994,11.994,0,0,1,3.4-8.7,12.316,12.316,0,0,1,17.2,0,11.994,11.994,0,0,1,3.4,8.7ZM257.4,80q-6.8,0-9.6-2.2T245,70V66.2q0-5.8,3.1-7.9t9.5-2.1q7,0,9.8,2.2t2.8,7.8V70q0,5.8-3,7.9T257.4,80Zm48.8,120a11.482,11.482,0,0,1-8.6-3.5,11.994,11.994,0,0,1-3.4-8.7V105.2a11.994,11.994,0,0,1,3.4-8.7,12.316,12.316,0,0,1,17.2,0,11.994,11.994,0,0,1,3.4,8.7V124l-1.4-13.4a31.153,31.153,0,0,1,5.7-8.5,33.812,33.812,0,0,1,7.9-6.2,35.874,35.874,0,0,1,9.4-3.7,42.717,42.717,0,0,1,10-1.2,15.3,15.3,0,0,1,10.1,3.4,10.137,10.137,0,0,1,4.1,8q0,6.6-3.4,9.5a11.175,11.175,0,0,1-7.4,2.9,16.576,16.576,0,0,1-6.9-1.4,17.083,17.083,0,0,0-7.1-1.4,17.388,17.388,0,0,0-7.3,1.7,20.1,20.1,0,0,0-6.8,5.3,27.914,27.914,0,0,0-5,8.9,37.063,37.063,0,0,0-1.9,12.5v47.4a11.994,11.994,0,0,1-3.4,8.7A11.482,11.482,0,0,1,306.2,200Zm132-109q14.8,0,22.5,6.2a31.515,31.515,0,0,1,10.6,16.5,84.4,84.4,0,0,1,2.9,22.9v51.2a11.994,11.994,0,0,1-3.4,8.7,12.316,12.316,0,0,1-17.2,0,11.994,11.994,0,0,1-3.4-8.7V136.6a38.864,38.864,0,0,0-1.7-11.9,16.439,16.439,0,0,0-6.1-8.5Q438,113,429.8,113a26.448,26.448,0,0,0-13.5,3.2,21.884,21.884,0,0,0-8.4,8.5,24.379,24.379,0,0,0-2.9,11.9v51.2a11.994,11.994,0,0,1-3.4,8.7,12.316,12.316,0,0,1-17.2,0,11.994,11.994,0,0,1-3.4-8.7V105.2a11.994,11.994,0,0,1,3.4-8.7,12.316,12.316,0,0,1,17.2,0,11.994,11.994,0,0,1,3.4,8.7v8.6l-3-.6a39.552,39.552,0,0,1,5.2-7.3,49.89,49.89,0,0,1,8-7.3,40.665,40.665,0,0,1,10.4-5.5A36.747,36.747,0,0,1,438.2,91ZM550.6,202q-17,0-29.5-7.1a49.03,49.03,0,0,1-19.2-19.3,56.379,56.379,0,0,1-6.7-27.6q0-18,7.3-30.7a51.63,51.63,0,0,1,19.1-19.5,49.3,49.3,0,0,1,25-6.8,45.509,45.509,0,0,1,19.3,4.2A52.758,52.758,0,0,1,582,106.7a55.9,55.9,0,0,1,11.1,16.9,51.393,51.393,0,0,1,4.1,20.4,10.27,10.27,0,0,1-3.8,7.8,12.723,12.723,0,0,1-8.4,3H508.6l-6-20H576l-4.4,4v-5.4a18.24,18.24,0,0,0-4.1-10.4,26.775,26.775,0,0,0-9.2-7.3,26.2,26.2,0,0,0-11.7-2.7,37.9,37.9,0,0,0-11.2,1.6,21.455,21.455,0,0,0-9,5.4,26.2,26.2,0,0,0-6,10.2q-2.2,6.4-2.2,16.2,0,10.8,4.5,18.3A30.754,30.754,0,0,0,549.4,180a46.484,46.484,0,0,0,11.8-1.2,26.522,26.522,0,0,0,7.1-2.9q2.7-1.7,4.9-2.9a15.258,15.258,0,0,1,6.8-1.8,10.073,10.073,0,0,1,10.2,10q0,5.4-5.6,9.8-5.2,4.4-14.6,7.7A58.15,58.15,0,0,1,550.6,202ZM612,183.4a11.185,11.185,0,0,1-1.8-7.2q.2-4.4,5.2-7.6a10.84,10.84,0,0,1,6.8-1.7,11.347,11.347,0,0,1,7,3.7,47.185,47.185,0,0,0,12.2,9q6.4,3.2,16,3.2a53.459,53.459,0,0,0,6.6-.9,12.657,12.657,0,0,0,6.3-3.2q2.7-2.5,2.7-7.7a8.792,8.792,0,0,0-3-7,25.265,25.265,0,0,0-7.9-4.4q-4.9-1.8-10.9-3.4-6.2-1.8-12.7-4a53.025,53.025,0,0,1-11.9-5.7,27.4,27.4,0,0,1-8.8-9.3q-3.4-5.8-3.4-14.6a26.358,26.358,0,0,1,5.6-17,36.573,36.573,0,0,1,14.5-10.8A47.134,47.134,0,0,1,653.2,91a60.369,60.369,0,0,1,13,1.5,50.871,50.871,0,0,1,13,4.8,32.124,32.124,0,0,1,10.4,8.7,14.2,14.2,0,0,1,2.6,7.2q.4,4.2-3.8,7.6a9.651,9.651,0,0,1-7,2.1,10.575,10.575,0,0,1-6.6-2.7,23.627,23.627,0,0,0-9.1-7,31.257,31.257,0,0,0-13.1-2.6,33.281,33.281,0,0,0-6.5.7,12.834,12.834,0,0,0-6.1,3q-2.6,2.3-2.6,7.3a9.331,9.331,0,0,0,3,7.3,22.7,22.7,0,0,0,8.1,4.4q5.1,1.7,10.9,3.3,6,1.6,12.2,3.8a48.291,48.291,0,0,1,11.4,5.8,27.514,27.514,0,0,1,8.4,9.3q3.2,5.7,3.2,14.5a26.287,26.287,0,0,1-6,17.4,37.982,37.982,0,0,1-15,10.9,47.981,47.981,0,0,1-18.4,3.7,71.51,71.51,0,0,1-23.6-4.1A40.853,40.853,0,0,1,612,183.4Zm96.4,0a11.185,11.185,0,0,1-1.8-7.2q.2-4.4,5.2-7.6a10.84,10.84,0,0,1,6.8-1.7,11.347,11.347,0,0,1,7,3.7,47.185,47.185,0,0,0,12.2,9q6.4,3.2,16,3.2a53.459,53.459,0,0,0,6.6-.9,12.657,12.657,0,0,0,6.3-3.2q2.7-2.5,2.7-7.7a8.792,8.792,0,0,0-3-7,25.265,25.265,0,0,0-7.9-4.4q-4.9-1.8-10.9-3.4-6.2-1.8-12.7-4a53.025,53.025,0,0,1-11.9-5.7,27.4,27.4,0,0,1-8.8-9.3q-3.4-5.8-3.4-14.6a26.358,26.358,0,0,1,5.6-17,36.573,36.573,0,0,1,14.5-10.8A47.134,47.134,0,0,1,749.6,91a60.369,60.369,0,0,1,13,1.5,50.871,50.871,0,0,1,13,4.8A32.124,32.124,0,0,1,786,106a14.2,14.2,0,0,1,2.6,7.2q.4,4.2-3.8,7.6a9.651,9.651,0,0,1-7,2.1,10.575,10.575,0,0,1-6.6-2.7,23.627,23.627,0,0,0-9.1-7,31.257,31.257,0,0,0-13.1-2.6,33.281,33.281,0,0,0-6.5.7,12.834,12.834,0,0,0-6.1,3q-2.6,2.3-2.6,7.3a9.331,9.331,0,0,0,3,7.3,22.7,22.7,0,0,0,8.1,4.4q5.1,1.7,10.9,3.3,6,1.6,12.2,3.8a48.291,48.291,0,0,1,11.4,5.8,27.514,27.514,0,0,1,8.4,9.3q3.2,5.7,3.2,14.5a26.287,26.287,0,0,1-6,17.4,37.982,37.982,0,0,1-15,10.9,47.981,47.981,0,0,1-18.4,3.7,71.51,71.51,0,0,1-23.6-4.1A40.853,40.853,0,0,1,708.4,183.4Z" transform="translate(15 168)" fill="url(#linear-gradient)"/>
    </g>
    <text id="Equity" transform="translate(276 193)" fill="#ebebeb" font-size="150" font-family="Quicksand" font-weight="700"><tspan x="0" y="150">Equity</tspan></text>
    <text id="Rights" transform="translate(276 581)" fill="#ebebeb" font-size="150" font-family="Quicksand" font-weight="700"><tspan x="0" y="150">Rights</tspan></text>
  </g>
</svg>
